<?xml version="1.0" encoding="utf-8"?>
<!-- Generator: Adobe Illustrator 15.1.0, SVG Export Plug-In . SVG Version: 6.00 Build 0)  -->
<!DOCTYPE svg PUBLIC "-//W3C//DTD SVG 1.1//EN" "http://www.w3.org/Graphics/SVG/1.1/DTD/svg11.dtd">
<svg version="1.1" id="Layer_1" xmlns="http://www.w3.org/2000/svg" xmlns:xlink="http://www.w3.org/1999/xlink" x="0px" y="0px"
	 width="542.001px" height="155.333px" viewBox="0 0 542.001 155.333" enable-background="new 0 0 542.001 155.333"
	 xml:space="preserve">
<g id="Layer_2">
</g>
<circle fill="#C62B36" cx="80.635" cy="78.974" r="45.067"/>
<g>
	<path fill="#FFFFFF" d="M107.18,55.385L91.686,45.357c-1.446-0.936-3.172-1.252-4.855-0.891c-1.686,0.359-3.13,1.355-4.066,2.803
		L68.758,68.92c-0.386,0.594-0.216,1.387,0.38,1.77l2.951,1.91l-3.572,5.521c-0.384,0.594-0.213,1.387,0.381,1.771
		c0.298,0.191,0.642,0.246,0.964,0.176c0.318-0.068,0.612-0.258,0.805-0.555l3.573-5.525l2.256,1.463L59.04,102.432
		c-1.957,3.023-1.089,7.076,1.937,9.035c1.464,0.949,3.21,1.268,4.916,0.902l0,0c1.707-0.365,3.167-1.373,4.115-2.84l21.158-32.698
		c0.251-0.393,0.457-0.803,0.614-1.225l1.63,1.055c0.288,0.189,0.634,0.248,0.966,0.18c0.05-0.014,0.098-0.025,0.148-0.041
		l5.829-1.998c0.272-0.094,0.504-0.277,0.662-0.514l1.699-2.628c0.186-0.285,0.247-0.631,0.175-0.965
		c-0.07-0.332-0.27-0.621-0.554-0.807l-13.553-8.77l2.32-3.588l13.556,8.768c0.294,0.193,0.642,0.246,0.96,0.178
		c0.325-0.07,0.616-0.26,0.811-0.559l1.698-2.625c0.156-0.242,0.226-0.527,0.2-0.814l-0.567-6.139
		C107.724,55.949,107.512,55.598,107.18,55.385z M89.015,75.44l-8.052,12.445l-2.203-1.422c-0.594-0.383-1.385-0.213-1.771,0.379
		c-0.384,0.592-0.213,1.387,0.378,1.771l2.203,1.424l-1.297,2.002l-2.201-1.426c-0.594-0.383-1.386-0.213-1.77,0.383
		c-0.384,0.592-0.215,1.385,0.38,1.77l2.201,1.425l-1.296,2.002l-2.201-1.424c-0.595-0.385-1.387-0.215-1.771,0.381
		c-0.383,0.594-0.213,1.387,0.378,1.77l2.201,1.426l-6.335,9.795c-0.578,0.891-1.465,1.502-2.502,1.727
		c-1.038,0.221-2.101,0.025-2.99-0.553c-1.837-1.188-2.367-3.652-1.179-5.49l18.152-28.058c0.384-0.596,0.214-1.387-0.377-1.771
		l-7.361-4.759l4.419-6.832l11.839,7.656C89.663,71.227,90.182,73.64,89.015,75.44z M99.87,71.342l-0.765,1.184l-4.825,1.649
		l-2.11-1.362c-0.158-1.932-1.172-3.77-2.917-4.898l-3.431-2.221l1.571-2.424L99.87,71.342z M105.737,62.273l-0.764,1.182
		l-13.553-8.77c-0.298-0.191-0.644-0.244-0.964-0.176c-0.318,0.068-0.614,0.258-0.806,0.555l-5.976,9.238l-6.26-4.049l7.5-11.594
		c0.564-0.873,1.434-1.473,2.45-1.691c1.019-0.217,2.059-0.025,2.932,0.537l14.971,9.691L105.737,62.273z"/>
	<path fill="#FFFFFF" d="M77.462,66.654c-0.594-0.385-1.386-0.213-1.771,0.381c-0.386,0.592-0.216,1.383,0.378,1.77l2.413,1.559
		c0.294,0.191,0.643,0.246,0.96,0.178c0.322-0.068,0.616-0.262,0.808-0.557c0.385-0.594,0.215-1.387-0.38-1.771L77.462,66.654z"/>
</g>
<g>
	<path fill="#01486E" d="M141.553,75.876l-3.884-32.94h11.357l1.573,21.436h0.885l2.212-20.944h12.438l2.458,20.944h0.885
		l0.983-21.436h11.456l-3.638,32.94h-16.667l-1.622-20.256l-0.492-0.049l-1.672,20.305H141.553z"/>
	<path fill="#01486E" d="M180.688,75.876l7.276-32.94h17.257l7.424,32.94H201.14l-0.934-3.786h-7.522l-0.787,3.786H180.688z
		 M196.026,51.884l-1.868,11.504h4.867l-1.77-11.504H196.026z"/>
	<path fill="#01486E" d="M235.947,75.876h-22.124v-32.94h11.406v23.648h10.718V75.876z"/>
	<path fill="#01486E" d="M259.989,75.876h-22.124v-32.94h11.406v23.648h10.718V75.876z"/>
	<path fill="#01486E" d="M275.181,75.876h-11.406V65.552l-9.391-22.615h12.094l3.098,9.685l3.196-9.685h12.045l-9.636,22.615V75.876
		z"/>
	<path fill="#01486E" d="M296.076,42.937h14.896c8.03,0,12.045,2.721,12.045,8.161c0,2.065-0.221,3.655-0.664,4.769
		c-0.443,1.115-1.352,2.163-2.729,3.146c1.606,0.688,2.712,1.533,3.319,2.532c0.606,1,0.91,2.664,0.91,4.99
		c0,6.228-4.229,9.341-12.685,9.341h-15.093V42.937z M309.989,50.458h-2.507v5.261h2.557c0.983,0,1.672-0.213,2.065-0.639
		c0.394-0.426,0.59-1.106,0.59-2.041s-0.213-1.598-0.639-1.991C311.627,50.655,310.939,50.458,309.989,50.458z M310.137,62.848
		h-2.655v5.408h2.655c1.146,0,1.917-0.188,2.311-0.565c0.393-0.376,0.59-1.082,0.59-2.114c0-1.033-0.213-1.746-0.639-2.139
		C311.972,63.044,311.218,62.848,310.137,62.848z"/>
	<path fill="#01486E" d="M348.042,75.876h-22.124v-32.94h11.406v23.648h10.718V75.876z"/>
	<path fill="#01486E" d="M348.239,75.876l7.276-32.94h17.257l7.424,32.94H368.69l-0.934-3.786h-7.521l-0.787,3.786H348.239z
		 M363.579,51.884l-1.869,11.504h4.867l-1.77-11.504H363.579z"/>
	<path fill="#01486E" d="M381.375,75.876v-32.94h11.21l7.571,12.488h0.688V42.937h11.405v32.94h-11.258l-7.474-13.422h-0.737v13.422
		H381.375z"/>
	<path fill="#01486E" d="M414.167,52.229v-9.292h24.582v9.292h-6.391v23.648h-11.406V52.229H414.167z"/>
	<path fill="#01486E" d="M470.805,59.406c0,5.998-1.246,10.349-3.736,13.053c-2.492,2.704-6.465,4.056-11.924,4.056
		c-5.457,0-9.439-1.36-11.945-4.081c-2.508-2.72-3.762-7.071-3.762-13.053c0-5.981,1.246-10.325,3.736-13.028
		c2.49-2.704,6.473-4.056,11.947-4.056c5.473,0,9.455,1.352,11.947,4.056C469.559,49.057,470.805,53.408,470.805,59.406z
		 M450.941,59.406c0,2.787,0.271,4.793,0.812,6.023c0.541,1.229,1.67,1.844,3.391,1.844c1.723,0,2.844-0.606,3.369-1.819
		c0.523-1.212,0.787-3.236,0.787-6.072c0-2.834-0.256-4.851-0.764-6.047c-0.508-1.196-1.631-1.794-3.367-1.794
		c-1.738,0-2.875,0.615-3.416,1.844S450.941,56.621,450.941,59.406z"/>
	<path fill="#01486E" d="M473.064,75.876v-32.94h11.211l7.57,12.488h0.689V42.937h11.404v32.94h-11.258l-7.473-13.422h-0.738v13.422
		H473.064z"/>
</g>
<g>
	<path fill="#01486E" d="M151.778,110.938h-1.524v6.981h-11.406v-32.94h12.93c5.211,0,9.004,0.902,11.381,2.704
		c2.376,1.803,3.564,5.187,3.564,10.152c0,4.965-1.197,8.391-3.589,10.275C160.742,109.996,156.956,110.938,151.778,110.938z
		 M150.253,101.941h1.033c1.409,0,2.417-0.311,3.023-0.934c0.606-0.622,0.91-1.688,0.91-3.196c0-1.507-0.287-2.523-0.86-3.048
		c-0.574-0.524-1.598-0.787-3.073-0.787h-1.033V101.941z"/>
	<path fill="#01486E" d="M191.06,117.919h-22.124v-32.94h11.406v23.648h10.718V117.919z"/>
	<path fill="#01486E" d="M203.794,84.979v21.583c0,0.951,0.237,1.623,0.713,2.016c0.475,0.394,1.27,0.59,2.384,0.59
		c1.114,0,1.9-0.196,2.36-0.59c0.458-0.393,0.688-1.064,0.688-2.016V84.979h11.406v20.944c0,4.654-1.164,7.924-3.49,9.808
		c-2.328,1.885-5.991,2.827-10.988,2.827c-4.999,0-8.662-0.917-10.988-2.753c-2.328-1.835-3.491-5.064-3.491-9.685V84.979H203.794z"
		/>
	<path fill="#01486E" d="M224.098,117.919v-32.94h16.961l2.557,12.586l2.114-12.586h17.453v32.94h-11.406v-16.962h-0.541
		l-2.852,16.618h-9.538l-2.802-16.618h-0.541v16.962H224.098z"/>
	<path fill="#01486E" d="M266.133,84.979h14.896c8.03,0,12.045,2.721,12.045,8.161c0,2.065-0.221,3.655-0.664,4.769
		c-0.443,1.115-1.352,2.163-2.729,3.146c1.606,0.688,2.712,1.533,3.319,2.532c0.606,1,0.91,2.664,0.91,4.99
		c0,6.228-4.229,9.341-12.685,9.341h-15.093V84.979z M280.046,92.501h-2.507v5.261h2.557c0.983,0,1.672-0.213,2.065-0.639
		c0.394-0.426,0.59-1.106,0.59-2.041s-0.213-1.598-0.639-1.991C281.685,92.698,280.997,92.501,280.046,92.501z M280.194,104.891
		h-2.655v5.408h2.655c1.146,0,1.917-0.188,2.311-0.565c0.393-0.376,0.59-1.082,0.59-2.114c0-1.033-0.213-1.746-0.639-2.139
		C282.029,105.087,281.276,104.891,280.194,104.891z"/>
	<path fill="#01486E" d="M295.976,117.919v-32.94h11.406v32.94H295.976z"/>
	<path fill="#01486E" d="M310.332,117.919v-32.94h11.209l7.571,12.488h0.688V84.979h11.406v32.94h-11.259l-7.473-13.422h-0.738
		v13.422H310.332z"/>
	<path fill="#01486E" d="M371.786,98.549v18.387c-5.932,0.951-10.324,1.426-13.176,1.426s-5.285-0.319-7.301-0.958
		s-3.598-1.696-4.745-3.171c-1.147-1.475-1.942-3.211-2.384-5.211c-0.442-1.999-0.664-4.539-0.664-7.62
		c0-6.326,1.18-10.75,3.54-13.274c2.36-2.523,6.342-3.786,11.946-3.786c1.672,0,3.557,0.14,5.654,0.418
		c2.098,0.279,3.77,0.549,5.016,0.811l1.867,0.442v8.604c-4.719-0.426-8.07-0.639-10.053-0.639c-1.984,0-3.279,0.09-3.885,0.271
		c-0.607,0.18-1.09,0.393-1.45,0.639c-0.361,0.246-0.623,0.73-0.787,1.451c-0.23,1.016-0.344,2.802-0.344,5.359
		s0.295,4.417,0.885,5.58c0.59,1.164,1.786,1.745,3.589,1.745l1.672-0.049v-2.458h-1.475l-0.049-7.964H371.786z"/>
</g>
</svg>
